<svg width="55" height="55" viewBox="0 0 55 55" fill="none" xmlns="http://www.w3.org/2000/svg">
<path d="M8.08415 49.0372L3.76407 0.580933H51.2359L46.9116 49.0299L27.4712 54.4195L8.08415 49.0372Z" fill="#1572B6"/>
<path d="M27.5004 50.3L43.2094 45.9447L46.9051 4.5426H27.5004V50.3Z" fill="#33A9DC"/>
<path d="M27.5004 22.0984H35.3646L35.9077 16.0127H27.5004V10.0697H42.4028L42.2602 11.6643L40.7993 28.0414H27.5004V22.0984Z" fill="white"/>
<path d="M27.5357 37.5328L27.5094 37.5405L20.891 35.7534L20.4677 31.0135H14.5028L15.3351 40.3451L27.5086 43.7237L27.5357 43.716V37.5328Z" fill="#EBEBEB"/>
<path d="M34.8593 27.79L34.1434 35.7487L27.515 37.5379V43.7211L39.6984 40.3446L39.7878 39.3405L40.8216 27.79H34.8593Z" fill="white"/>
<path d="M27.5206 10.0697V16.0127H13.1656L13.0466 14.6772L12.7759 11.6643L12.6337 10.0697H27.5206ZM27.5004 22.0992V28.0422H20.9653L20.8463 26.7068L20.5752 23.6938L20.4334 22.0992H27.5004Z" fill="#EBEBEB"/>
</svg>
