<svg width="55" height="55" viewBox="0 0 55 55" fill="none" xmlns="http://www.w3.org/2000/svg">
<path d="M8.17997 48.9311L3.88095 0.713745H51.1191L46.8153 48.9238L27.4712 54.2863L8.17997 48.9311Z" fill="#E44D26"/>
<path d="M27.5 50.1875L43.1312 45.8537L46.8089 4.65613H27.5V50.1875Z" fill="#F16529"/>
<path d="M27.5 22.5392H19.6745L19.134 16.4832H27.5V10.5698H12.6711L12.8128 12.1562L14.2661 28.453H27.5V22.5392ZM27.5 37.8975L27.4738 37.9048L20.888 36.1259L20.4673 31.4101H14.5303L15.3587 40.6952L27.4729 44.0579L27.5 44.0506V37.8975Z" fill="#EBEBEB"/>
<path d="M27.4794 22.5392V28.453H34.7613L34.0751 36.1225L27.4794 37.9027V44.0554L39.603 40.6952L39.6919 39.6962L41.0816 24.1273L41.2255 22.5392H39.6322H27.4794ZM27.4794 10.5698V16.4832H41.7639L41.8825 15.1546L42.1523 12.1562L42.2937 10.5698H27.4794Z" fill="white"/>
</svg>
