<svg width="53" height="53" viewBox="0 0 53 53" fill="none" xmlns="http://www.w3.org/2000/svg">
<g clip-path="url(#clip0_6_42)">
<path d="M0.583 0.583008H52.417V52.4174H0.583V0.583008Z" fill="#F0DB4F"/>
<path d="M48.1749 40.0548C47.7952 37.6901 46.2533 35.7038 41.6857 33.8517C40.0991 33.1225 38.3302 32.6004 37.8031 31.398C37.6159 30.6982 37.5911 30.304 37.7095 29.8804C38.0494 28.5057 39.6904 28.0772 40.9909 28.4714C41.8286 28.7521 42.6215 29.3976 43.0998 30.4274C45.3365 28.979 45.332 28.9885 46.8938 27.9931C46.322 27.1066 46.0168 26.6975 45.6425 26.3182C44.2972 24.8156 42.4642 24.0417 39.5326 24.1009L38.0056 24.2984C36.5423 24.6682 35.1477 25.4363 34.3299 26.4661C31.8762 29.2502 32.576 34.1229 35.5618 36.1282C38.5033 38.336 42.8244 38.8382 43.3764 40.9028C43.9134 43.4302 41.5189 44.2484 39.1388 43.9577C37.3849 43.5929 36.4093 42.7015 35.3547 41.0804C33.4136 42.2038 33.4136 42.2038 31.4178 43.3515C31.8911 44.3863 32.3884 44.8546 33.1817 45.751C36.9364 49.5596 46.3324 49.3724 48.0176 43.6078C48.0859 43.4099 48.5397 42.0899 48.1749 40.0548ZM28.7616 24.4061H23.9133L23.8935 36.9406C23.8935 39.6063 24.0314 42.0501 23.5978 42.7992C22.8885 44.2724 21.0505 44.0898 20.2129 43.8041C19.3603 43.3851 18.9268 42.7892 18.4245 41.947C18.2867 41.7052 18.1831 41.5181 18.1484 41.5036L14.2065 43.9176C14.8619 45.2628 15.8275 46.4305 17.0643 47.1891C18.9119 48.2979 21.395 48.6379 23.992 48.0416C25.6822 47.5493 27.1406 46.5295 27.9041 44.9771C29.008 42.942 28.7711 40.4788 28.7612 37.7542C28.786 33.3093 28.7616 28.8651 28.7616 24.4061Z" fill="#323330"/>
</g>
<defs>
<clipPath id="clip0_6_42">
<rect width="53" height="53" fill="white"/>
</clipPath>
</defs>
</svg>
