<svg width="61" height="61" viewBox="0 0 61 61" fill="none" xmlns="http://www.w3.org/2000/svg">
<path d="M30.5 35.9328C33.5005 35.9328 35.9328 33.5004 35.9328 30.5C35.9328 27.4995 33.5005 25.0671 30.5 25.0671C27.4995 25.0671 25.0672 27.4995 25.0672 30.5C25.0672 33.5004 27.4995 35.9328 30.5 35.9328Z" fill="#61DAFB"/>
<path d="M51.1352 21.5406C50.0867 21.1593 48.9906 20.7781 47.8469 20.4445C48.1328 19.3007 48.3711 18.157 48.5617 17.0609C49.5625 10.7703 48.4664 6.33823 45.4164 4.62261C44.5109 4.09839 43.5102 3.86011 42.3664 3.86011C39.0305 3.86011 34.7891 6.33823 30.5 10.4843C26.2109 6.33823 21.9695 3.86011 18.6336 3.86011C17.4898 3.86011 16.4891 4.09839 15.5836 4.62261C12.5336 6.38589 11.4375 10.8179 12.4383 17.0609C12.6289 18.157 12.8672 19.3007 13.1531 20.4445C12.0094 20.7781 10.9133 21.1117 9.86485 21.5406C3.90782 23.8281 0.667191 26.9734 0.667191 30.5C0.667191 34.0265 3.95547 37.1718 9.86485 39.4593C10.9133 39.8406 12.0094 40.2218 13.1531 40.5554C12.8672 41.6992 12.6289 42.8429 12.4383 43.939C11.4375 50.2296 12.5336 54.6617 15.5836 56.3773C16.4891 56.9015 17.4898 57.1398 18.6336 57.1398C22.0172 57.1398 26.2586 54.6617 30.5 50.5156C34.7891 54.6617 39.0305 57.1398 42.3664 57.1398C43.5102 57.1398 44.5109 56.9015 45.4164 56.3773C48.4664 54.614 49.5625 50.182 48.5617 43.939C48.3711 42.8429 48.1328 41.6992 47.8469 40.5554C48.9906 40.2218 50.0867 39.8882 51.1352 39.4593C57.0922 37.1718 60.3328 34.0265 60.3328 30.5C60.3328 26.9734 57.0922 23.8281 51.1352 21.5406ZM44.082 7.00542C46.0359 8.14917 46.7031 11.6757 45.893 16.6796C45.75 17.6804 45.5117 18.7289 45.2258 19.825C42.7477 19.2531 40.1266 18.8718 37.3625 18.6335C35.7422 16.346 34.0742 14.2968 32.4063 12.4382C35.9328 8.95933 39.507 6.57651 42.4141 6.57651C43.0336 6.57651 43.6055 6.71948 44.082 7.00542ZM38.7445 35.2656C37.8867 36.7906 36.8859 38.3156 35.8375 39.8406C34.0742 39.9835 32.3109 40.0312 30.5 40.0312C28.6414 40.0312 26.8781 39.9835 25.1625 39.8406C24.1141 38.3156 23.1609 36.7906 22.3031 35.2656C21.3977 33.6929 20.5398 32.0726 19.7773 30.5C20.5398 28.9273 21.3977 27.307 22.3031 25.7343C23.1609 24.2093 24.1617 22.6843 25.2102 21.1593C26.9734 21.0164 28.7367 20.9687 30.5477 20.9687C32.4063 20.9687 34.1695 21.0164 35.8852 21.1593C36.9336 22.6843 37.8867 24.2093 38.7445 25.7343C39.65 27.307 40.5078 28.9273 41.2703 30.5C40.4602 32.0726 39.65 33.6453 38.7445 35.2656ZM42.7 33.6929C43.4148 35.3609 43.9867 36.9812 44.5109 38.6015C42.8906 38.9828 41.175 39.2687 39.3641 39.507C39.9359 38.6015 40.5555 37.6484 41.0797 36.6476C41.6516 35.6468 42.1758 34.646 42.7 33.6929ZM30.5 46.6078C29.3563 45.3687 28.2602 44.0343 27.2117 42.6523C28.3078 42.7 29.4039 42.7476 30.5 42.7476C31.5961 42.7476 32.6922 42.7 33.7883 42.6523C32.7398 44.0343 31.6438 45.3687 30.5 46.6078ZM21.6359 39.4593C19.825 39.221 18.1094 38.9351 16.4891 38.5539C17.0133 36.9812 17.5852 35.3132 18.3 33.6453C18.8242 34.5984 19.3484 35.5992 19.9203 36.5523C20.4922 37.6007 21.0641 38.5062 21.6359 39.4593ZM18.3 27.307C17.5852 25.639 17.0133 24.0187 16.4891 22.3984C18.1094 22.0171 19.825 21.7312 21.6359 21.4929C21.0641 22.3984 20.4445 23.3515 19.9203 24.3523C19.3484 25.3531 18.8242 26.3539 18.3 27.307ZM30.5 14.3921C31.6438 15.6312 32.7398 16.9656 33.7883 18.3476C32.6922 18.3 31.5961 18.2523 30.5 18.2523C29.4039 18.2523 28.3078 18.3 27.2117 18.3476C28.2602 16.9656 29.3563 15.6312 30.5 14.3921ZM41.0797 24.4L39.3641 21.5406C41.175 21.7789 42.8906 22.0648 44.5109 22.446C43.9867 24.0187 43.4148 25.6867 42.7 27.3546C42.1758 26.3539 41.6516 25.3531 41.0797 24.4ZM15.107 16.6796C14.2969 11.6757 14.9641 8.14917 16.918 7.00542C17.3945 6.71948 17.9664 6.57651 18.5859 6.57651C21.4453 6.57651 25.0195 8.91167 28.5938 12.4382C26.9258 14.2492 25.2578 16.346 23.6375 18.6335C20.8734 18.8718 18.2523 19.3007 15.7742 19.825C15.4883 18.7289 15.2977 17.6804 15.107 16.6796ZM3.33594 30.5C3.33594 28.2601 6.05235 25.8773 10.818 24.114C11.7711 23.7328 12.8195 23.3992 13.868 23.1132C14.6305 25.496 15.5836 28.0218 16.7273 30.5476C15.5836 33.0734 14.5828 35.5515 13.868 37.9343C7.29141 36.0281 3.33594 33.1687 3.33594 30.5ZM16.918 53.9945C14.9641 52.8507 14.2969 49.3242 15.107 44.3203C15.25 43.3195 15.4883 42.271 15.7742 41.175C18.2523 41.7468 20.8734 42.1281 23.6375 42.3664C25.2578 44.6539 26.9258 46.7031 28.5938 48.5617C25.0672 52.0406 21.493 54.4234 18.5859 54.4234C17.9664 54.4234 17.3945 54.2804 16.918 53.9945ZM45.893 44.3203C46.7031 49.3242 46.0359 52.8507 44.082 53.9945C43.6055 54.2804 43.0336 54.4234 42.4141 54.4234C39.5547 54.4234 35.9805 52.0882 32.4063 48.5617C34.0742 46.7507 35.7422 44.6539 37.3625 42.3664C40.1266 42.1281 42.7477 41.6992 45.2258 41.175C45.5117 42.271 45.7023 43.3195 45.893 44.3203ZM50.182 36.8859C49.2289 37.2671 48.1805 37.6007 47.132 37.8867C46.3695 35.5039 45.4164 32.9781 44.2727 30.4523C45.4164 27.9265 46.4172 25.4484 47.132 23.0656C53.7086 24.9718 57.6641 27.8312 57.6641 30.5C57.6641 32.7398 54.9 35.1226 50.182 36.8859Z" fill="#61DAFB"/>
</svg>
