<svg width="88" height="52" viewBox="0 0 88 52" fill="none" xmlns="http://www.w3.org/2000/svg">
<g clip-path="url(#clip0_6_92)">
<path d="M44 0.0690918C32.2668 0.0690918 24.9332 5.83162 22 17.3563C26.4 11.5938 31.5332 9.4329 37.4 10.8736C40.7471 11.6954 43.1396 14.0809 45.7878 16.7209C50.1019 21.0221 55.0945 25.9999 66 25.9999C77.7332 25.9999 85.0668 20.2374 88 8.71271C83.6 14.4752 78.4668 16.6361 72.6 15.1954C69.2529 14.3736 66.8604 11.9882 64.2122 9.34815C59.8981 5.04694 54.9055 0.0690918 44 0.0690918ZM22 25.9999C10.2668 25.9999 2.93322 31.7625 0 43.2872C4.4 37.5247 9.53322 35.3637 15.4 36.8045C18.7471 37.6263 21.1396 40.0117 23.7878 42.6517C28.1019 46.9529 33.0945 51.9308 44 51.9308C55.7332 51.9308 63.0668 46.1683 66 34.6436C61.6 40.4061 56.4668 42.567 50.6 41.1263C47.2529 40.3045 44.8604 37.919 42.2122 35.279C37.8981 30.9778 32.9055 25.9999 22 25.9999Z" fill="url(#paint0_linear_6_92)"/>
</g>
<defs>
<linearGradient id="paint0_linear_6_92" x1="-2.44464" y1="16.6648" x2="72.8716" y2="60.8765" gradientUnits="userSpaceOnUse">
<stop stop-color="#2298BD"/>
<stop offset="1" stop-color="#0ED7B5"/>
</linearGradient>
<clipPath id="clip0_6_92">
<rect width="88" height="52" fill="white"/>
</clipPath>
</defs>
</svg>
