<svg width="59" height="54" viewBox="0 0 59 54" fill="none" xmlns="http://www.w3.org/2000/svg">
<g clip-path="url(#clip0_6_56)">
<path d="M10.4495 19.8281H56.3911V50.9077H10.4495V19.8281Z" fill="white"/>
<path d="M0.691406 26.962V53.3292H58.3086V0.594849H0.691406V26.962ZM47.1216 24.8527C48.5016 25.1458 49.7559 25.8064 50.7262 26.7511C51.2603 27.2601 51.7247 27.8267 52.109 28.4386C52.109 28.5061 49.6199 30.0459 48.1034 30.9066C48.0481 30.9403 47.8269 30.7209 47.5826 30.3877C47.3057 29.9505 46.9124 29.5846 46.4393 29.3242C45.9661 29.0637 45.4286 28.9173 44.8769 28.8984C43.1299 28.7888 42.0052 29.6283 42.0145 31.0078C42 31.3513 42.0859 31.6921 42.2634 31.995C42.6459 32.7248 43.3604 33.1594 45.6005 34.0453C49.7259 35.6695 51.4913 36.7411 52.5884 38.2641C53.8145 39.9516 54.0864 42.6769 53.2567 44.6934C52.3348 46.8872 50.0762 48.3764 46.882 48.87C45.423 49.0229 43.9489 49.0088 42.4938 48.8278C40.2636 48.4914 38.2093 47.5113 36.6307 46.0308C36.1006 45.495 35.0681 44.0986 35.1327 43.9973C35.3009 43.883 35.4781 43.7801 35.6627 43.6894L37.7969 42.6094L39.4516 41.7319L39.7973 42.2002C40.3808 42.964 41.1233 43.6149 41.9822 44.1155C43.8259 45.0014 46.3427 44.8791 47.5872 43.8539C48.005 43.4783 48.2657 42.9804 48.3238 42.4469C48.3819 41.9135 48.2338 41.3783 47.9052 40.9345C47.4443 40.3481 46.5224 39.8545 43.9458 38.8252C40.9727 37.6523 39.6913 36.9267 38.5205 35.7708C37.7897 35.008 37.25 34.108 36.9395 33.1341C36.7079 32.0213 36.6737 30.8818 36.8381 29.7591C37.4512 27.1308 39.6037 25.2956 42.7473 24.7514C44.2032 24.5865 45.6779 24.6235 47.1216 24.8611V24.8527ZM33.5977 27.0633V29.2233H26.1167V48.7266H20.8113V29.2191H13.3119V27.1097C13.2885 26.3823 13.307 25.6542 13.3672 24.9286C13.4041 24.8906 17.9766 24.8906 23.5078 24.8906H33.5701L33.5977 27.0633Z" fill="#007ACC"/>
</g>
<defs>
<clipPath id="clip0_6_56">
<rect width="59" height="54" fill="white"/>
</clipPath>
</defs>
</svg>
